<svg version="1.1" id="Layer_1" xmlns="http://www.w3.org/2000/svg" x="0" y="0" viewBox="0 0 216 216" style="enable-background:new 0 0 216 216" xml:space="preserve"><style>.st1{fill:#4d75e4}</style><path d="M161.991 14.485C110.344-15.333 44.303 2.362 14.485 54.009S2.362 171.697 54.009 201.515c51.647 29.818 117.688 12.123 147.506-39.524s12.123-117.688-39.524-147.506z" style="fill:#fff"/><path class="st1" d="m92.345 85.87-9.563 16.565h.044l-.01.02 42.612 24.601.221-.382 9.12-15.798.216-.373-42.613-24.602z"/><path class="st1" d="M161.991 14.485C110.344-15.333 44.303 2.362 14.485 54.009S2.362 171.697 54.009 201.515c51.647 29.818 117.688 12.123 147.506-39.524s12.123-117.688-39.524-147.506zm-104.58 114.4 58.467 33.756H76.9l-19.49-33.756zm96.846-50.29-7.152 12.386a72.01 72.01 0 0 1 11.906 20.781c7.152 19.395 5.958 41.705-5.185 61.005a72.417 72.417 0 0 1-7.934 11.14l-20.93-36.998-58.469-33.756-43.18-.001a72.428 72.428 0 0 1 5.684-12.454c11.143-19.3 29.868-31.492 50.24-34.995a71.992 71.992 0 0 1 24.475 0h.276l.012.053.002.001 7.006-12.133 20.01.001-11.102-19.229h.002a15.32 15.32 0 0 1 13.266 7.658l6.668 11.551h13.336a15.32 15.32 0 0 1 13.266 7.66H144.25l10.007 17.33z"/></svg>